<?xml version="1.0" standalone="no"?>
<!DOCTYPE svg PUBLIC "-//W3C//DTD SVG 20010904//EN"
 "http://www.w3.org/TR/2001/REC-SVG-20010904/DTD/svg10.dtd">
<svg version="1.0" xmlns="http://www.w3.org/2000/svg"
 width="420.000000pt" height="420.000000pt" viewBox="0 0 420.000000 420.000000"
 preserveAspectRatio="xMidYMid meet">
<metadata>
Created by potrace 1.11, written by Peter Selinger 2001-2013
</metadata>
<g transform="translate(0.000000,420.000000) scale(0.100000,-0.100000)"
fill="#000000" stroke="none">
<path d="M828 3703 c-18 -5 -21 -11 -94 -266 -30 -106 -34 -130 -23 -143 16
-20 111 -68 167 -84 25 -8 43 -20 44 -29 0 -9 2 -20 3 -26 1 -5 5 -41 9 -80
19 -172 27 -237 31 -265 2 -14 7 -54 10 -90 3 -36 8 -76 10 -90 2 -14 7 -52
10 -85 3 -33 7 -71 10 -85 2 -14 7 -56 10 -95 3 -38 8 -83 10 -100 4 -28 7
-55 20 -165 9 -78 16 -144 20 -170 2 -14 6 -55 10 -92 3 -37 7 -75 9 -85 2
-10 7 -52 11 -93 4 -41 9 -91 11 -110 3 -19 7 -53 9 -75 2 -22 7 -60 10 -85 3
-25 7 -61 9 -80 2 -19 7 -64 11 -100 4 -36 9 -78 11 -95 2 -16 6 -55 9 -85 3
-30 8 -69 10 -86 2 -16 7 -59 10 -95 4 -35 8 -74 10 -85 2 -12 6 -48 10 -80
11 -103 15 -128 23 -135 8 -7 431 -129 448 -129 6 0 146 168 311 373 314 389
430 533 877 1087 148 184 317 394 374 465 58 72 108 133 111 137 4 4 33 0 65
-8 74 -19 133 -23 169 -11 22 7 30 19 43 65 9 32 33 116 54 187 38 129 38 130
18 151 -24 27 -99 68 -158 87 -47 16 -231 71 -265 80 -11 3 -112 33 -225 66
-239 72 -235 71 -323 78 -112 9 -196 -37 -242 -134 -25 -52 -26 -166 -2 -211
40 -73 127 -129 262 -166 93 -26 89 -23 63 -55 -71 -89 -394 -488 -409 -505
-9 -12 -180 -223 -379 -469 -199 -246 -364 -447 -365 -445 -2 2 -6 31 -10 65
-3 34 -7 70 -9 80 -2 10 -7 52 -11 93 -4 41 -9 82 -10 90 -2 9 -6 47 -10 85
-3 39 -8 81 -10 95 -2 14 -6 54 -10 90 -4 36 -9 79 -10 95 -18 149 -35 310
-40 355 -3 30 -7 71 -10 90 -9 69 -15 116 -20 170 -3 30 -7 71 -10 90 -3 19
-7 58 -10 85 -3 28 -8 74 -11 104 -4 30 -8 66 -9 80 -2 14 -6 55 -10 91 -3 36
-8 71 -10 78 -6 16 -2 16 80 -8 93 -27 119 -31 190 -32 101 -1 165 37 209 124
76 152 14 287 -164 356 -62 24 -646 198 -750 224 -48 11 -153 18 -182 11z"/>
</g>
</svg>
